<?xml version="1.0" encoding="utf-8"?>
<!-- Generator: Adobe Illustrator 26.0.1, SVG Export Plug-In . SVG Version: 6.00 Build 0)  -->
<svg version="1.1" xmlns="http://www.w3.org/2000/svg" xmlns:xlink="http://www.w3.org/1999/xlink" x="0px" y="0px"
	 viewBox="0 0 198.5 198.5" style="enable-background:new 0 0 198.5 198.5;" xml:space="preserve">
<style type="text/css">
	.st0{fill:none;stroke:#000000;stroke-width:6;stroke-miterlimit:10;}
</style>
<g id="Capa_1">
	<path d="M146.2,88.3c10.1-8.7,16.1-20.2,17.3-33.4c2.8-30.5-11.6-52.6-12.2-53.5c-0.6-0.9-1.7-1.5-2.8-1.5H50
		c-1.1,0-2.2,0.6-2.8,1.5C46.6,2.4,32.2,24.4,35,55c1.2,13.1,7.2,24.7,17.3,33.4c8.8,7.5,20.3,12.7,33.3,14.9v66.3
		c-11.9,0.6-22.7,1.9-30.6,3.8c-10.9,2.6-16,5.9-16,10.5c0,5.1,6.2,8.7,19.5,11.3c10.9,2.1,25.3,3.3,40.6,3.4v0c0.1,0,0.3,0,0.3,0
		c15.3,0,29.7-1.2,40.6-3.4c13.3-2.6,19.5-6.2,19.5-11.3c0-4.6-5.1-8-16-10.5c-8-1.9-18.8-3.2-30.6-3.8v-66.3
		C125.9,101,137.4,95.9,146.2,88.3z M140,179.4c8.6,1.8,11.5,3.6,12.4,4.4c-1.3,1.1-5.5,3.2-15.9,5.1c-10.2,1.8-23.5,2.8-37.3,2.8
		c-13.8,0-27.1-1-37.3-2.8c-10.4-1.8-14.7-4-15.9-5.1c0.9-0.8,3.8-2.6,12.4-4.4c7.3-1.5,16.8-2.6,27.1-3.2v4.7
		c0,1.9,1.5,3.4,3.4,3.4s3.4-1.5,3.4-3.4l0-80.7c0-1.9-1.5-3.4-3.4-3.4c0,0-0.1,0-0.1,0c0,0,0,0,0,0c-21.2-3-44.7-15.7-47.1-42.5
		C39.5,30.6,48.9,12,51.9,6.8h94.6c3,5.3,12.4,23.9,10.2,47.6c-2.4,26.8-25.9,39.5-47.1,42.5c0,0,0,0,0,0c0,0-0.1,0-0.1,0
		c-1.9,0-3.4,1.5-3.4,3.4l0,81.2c0,1.9,1.5,3.4,3.4,3.4c1.9,0,3.4-1.5,3.4-3.4v-5.1C123.2,176.8,132.7,177.9,140,179.4z"/>
</g>
<g id="Layer_2">
	<line class="st0" x1="109.9" y1="20" x2="97" y2="3.9"/>
	<line class="st0" x1="109.9" y1="16.2" x2="93.4" y2="39.8"/>
	<line class="st0" x1="93.5" y1="35.7" x2="113.4" y2="60.6"/>
	<line class="st0" x1="113.5" y1="56.7" x2="90.4" y2="75.7"/>
</g>
</svg>
